<svg width="20" height="20" viewBox="0 0 20 20" fill="none" xmlns="http://www.w3.org/2000/svg">
<path d="M17.0664 4.10938H13.5442L13.2016 3.08176C12.9859 2.43471 12.3828 2 11.7008 2H8.29925C7.61725 2 7.01407 2.43471 6.79839 3.08176L6.45583 4.10938H5.60547V3.23047C5.60547 2.55199 5.05348 2 4.375 2H3.67188C2.99339 2 2.44141 2.55199 2.44141 3.23047V4.17308C1.61284 4.39133 1 5.14684 1 6.04297V15.1836C1 16.2498 1.86741 17.1172 2.93359 17.1172H17.0664C18.1326 17.1172 19 16.2498 19 15.1836V6.04297C19 4.97679 18.1326 4.10938 17.0664 4.10938ZM3.49609 3.23047C3.49609 3.13354 3.57495 3.05469 3.67188 3.05469H4.375C4.47193 3.05469 4.55078 3.13354 4.55078 3.23047V4.10938H3.49609V3.23047ZM17.9453 15.1836C17.9453 15.6682 17.551 16.0625 17.0664 16.0625H2.93359C2.44896 16.0625 2.05469 15.6682 2.05469 15.1836V6.04297C2.05469 5.55834 2.44896 5.16406 2.93359 5.16406H6.83594C7.06291 5.16406 7.26442 5.01883 7.33621 4.80346L7.79894 3.41529C7.87087 3.1996 8.07189 3.05469 8.29925 3.05469H11.7008C11.9281 3.05469 12.1292 3.1996 12.201 3.41525L12.6638 4.80346C12.7356 5.01883 12.9371 5.16406 13.1641 5.16406H17.0664C17.551 5.16406 17.9453 5.55834 17.9453 6.04297V15.1836Z" fill="#868889"/>
<path d="M16.3281 7.27344C16.6194 7.27344 16.8555 7.03734 16.8555 6.74609C16.8555 6.45485 16.6194 6.21875 16.3281 6.21875C16.0369 6.21875 15.8008 6.45485 15.8008 6.74609C15.8008 7.03734 16.0369 7.27344 16.3281 7.27344Z" fill="#868889"/>
<path d="M10 14C7.93871 14 6.26172 12.323 6.26172 10.2617C6.26172 8.20043 7.93871 6.52344 10 6.52344C12.0613 6.52344 13.7383 8.20043 13.7383 10.2617C13.7383 12.323 12.0613 14 10 14ZM10 7.35417C8.39678 7.35417 7.09245 8.65849 7.09245 10.2617C7.09245 11.8649 8.39678 13.1693 10 13.1693C11.6032 13.1693 12.9076 11.8649 12.9076 10.2617C12.9076 8.65849 11.6032 7.35417 10 7.35417Z" fill="#868889"/>
</svg>
