<svg width="23" height="19" viewBox="0 0 23 19" fill="none" xmlns="http://www.w3.org/2000/svg">
<path d="M20.9785 0.523438H2.02148C0.90823 0.523438 0 1.43068 0 2.54492V16.0215C0 17.132 0.904188 18.043 2.02148 18.043H20.9785C22.089 18.043 23 17.1388 23 16.0215V2.54492C23 1.43445 22.0958 0.523438 20.9785 0.523438ZM20.6994 1.87109L11.5429 11.0277L2.30714 1.87109H20.6994ZM1.34766 15.7424V2.81755L7.83792 9.25216L1.34766 15.7424ZM2.30058 16.6953L8.79494 10.201L11.0705 12.457C11.334 12.7182 11.7591 12.7173 12.0214 12.455L14.2402 10.2361L20.6994 16.6953H2.30058ZM21.6523 15.7424L15.1932 9.2832L21.6523 2.82398V15.7424Z" fill="#868889"/>
</svg>
