<svg width="23" height="22" viewBox="0 0 23 22" fill="none" xmlns="http://www.w3.org/2000/svg">
<path d="M19.1703 21.3741H4.02932C2.89981 21.3741 1.98084 20.4552 1.98084 19.3256V8.54796C1.98084 8.15448 2.29983 7.83545 2.69336 7.83545C3.08689 7.83545 3.40587 8.15448 3.40587 8.54796V19.3256C3.40587 19.6694 3.68553 19.9491 4.02932 19.9491H19.1703C19.514 19.9491 19.7937 19.6694 19.7937 19.3256V8.54796C19.7937 8.15448 20.1127 7.83545 20.5062 7.83545C20.8998 7.83545 21.2187 8.15448 21.2187 8.54796V19.3256C21.2187 20.4551 20.2998 21.3741 19.1703 21.3741Z" fill="#040404"/>
<path d="M22.2875 11.0413C22.1052 11.0413 21.9228 10.9718 21.7837 10.8326L12.9223 1.9713C12.1931 1.24205 11.0065 1.24205 10.2773 1.9713L1.41593 10.8327C1.13769 11.1109 0.686533 11.1109 0.408296 10.8327C0.130015 10.5544 0.130015 10.1033 0.408296 9.82504L9.26966 0.963631C10.5545 -0.32121 12.6452 -0.32121 13.93 0.963631L22.7913 9.825C23.0696 10.1033 23.0696 10.5544 22.7913 10.8326C22.6522 10.9718 22.4699 11.0413 22.2875 11.0413Z" fill="#040404"/>
<path d="M14.4499 21.374H8.74975C8.35622 21.374 8.03724 21.055 8.03724 20.6615V14.3379C8.03724 13.1102 9.0361 12.1113 10.2638 12.1113H12.9358C14.1635 12.1113 15.1624 13.1102 15.1624 14.3379V20.6615C15.1624 21.055 14.8434 21.374 14.4499 21.374ZM9.46227 19.949H13.7374V14.3379C13.7374 13.896 13.3778 13.5364 12.9358 13.5364H10.2638C9.82187 13.5364 9.46227 13.896 9.46227 14.3379V19.949Z" fill="#040404"/>
</svg>
