<svg width="24" height="32" viewBox="0 0 24 32" fill="none" xmlns="http://www.w3.org/2000/svg">
<path d="M11.9997 0.567383C5.38278 0.567383 -0.000488281 5.95065 -0.000488281 12.5676C-0.000488281 16.2892 1.92513 20.6115 5.7229 25.4146C8.50183 28.9292 11.2407 31.3581 11.356 31.4597C11.7238 31.7842 12.2756 31.7843 12.6435 31.4597C12.7587 31.3581 15.4977 28.9292 18.2766 25.4146C22.0744 20.6115 24 16.2892 24 12.5676C24 5.95065 18.6167 0.567383 11.9997 0.567383V0.567383ZM11.9997 29.4027C9.68736 27.199 1.9455 19.3155 1.9455 12.5676C1.9455 7.02368 6.45581 2.51337 11.9997 2.51337C17.5437 2.51337 22.054 7.02368 22.054 12.5676C22.054 19.3155 14.312 27.1991 11.9997 29.4027Z" fill="#6CC51D"/>
<path d="M19.4439 11.9912L12.633 6.15319C12.2686 5.84086 11.7309 5.84086 11.3666 6.15319L4.5556 11.9912C4.14761 12.3408 4.10036 12.9551 4.45009 13.3631C4.79982 13.7711 5.41409 13.8184 5.82207 13.4686L6.64827 12.7604V17.5949C6.64827 18.1322 7.08392 18.5679 7.62126 18.5679H16.3782C16.9155 18.5679 17.3512 18.1322 17.3512 17.5949V12.7604L18.1774 13.4686C18.5873 13.82 19.2013 13.7693 19.5494 13.3631C19.8992 12.9551 19.8519 12.3409 19.4439 11.9912ZM15.4052 16.6219H8.59425V11.0924L11.9997 8.17343L15.4052 11.0924V16.6219Z" fill="#6CC51D"/>
</svg>
