<svg width="18" height="13" viewBox="0 0 18 13" fill="none" xmlns="http://www.w3.org/2000/svg">
<path d="M10.2305 8.52541C10.7159 8.52541 11.1094 8.13191 11.1094 7.64649C11.1094 7.16108 10.7159 6.76758 10.2305 6.76758C9.74507 6.76758 9.35156 7.16108 9.35156 7.64649C9.35156 8.13191 9.74507 8.52541 10.2305 8.52541Z" fill="#868889"/>
<path d="M12.6914 8.52541C13.1768 8.52541 13.5703 8.13191 13.5703 7.64649C13.5703 7.16108 13.1768 6.76758 12.6914 6.76758C12.206 6.76758 11.8125 7.16108 11.8125 7.64649C11.8125 8.13191 12.206 8.52541 12.6914 8.52541Z" fill="#868889"/>
<path d="M7.76954 8.52541C8.25495 8.52541 8.64846 8.13191 8.64846 7.64649C8.64846 7.16108 8.25495 6.76758 7.76954 6.76758C7.28413 6.76758 6.89062 7.16108 6.89062 7.64649C6.89062 8.13191 7.28413 8.52541 7.76954 8.52541Z" fill="#868889"/>
<path d="M5.3086 8.52541C5.79402 8.52541 6.18752 8.13191 6.18752 7.64649C6.18752 7.16108 5.79402 6.76758 5.3086 6.76758C4.82319 6.76758 4.42969 7.16108 4.42969 7.64649C4.42969 8.13191 4.82319 8.52541 5.3086 8.52541Z" fill="#868889"/>
<path d="M17.2968 0H0.702889C0.314549 0 -0.000244141 0.314793 -0.000244141 0.703133V11.9533C-0.000244141 12.3416 0.314549 12.6564 0.702889 12.6564H17.2968C17.6852 12.6564 18 12.3416 18 11.9533V0.703133C18 0.314793 17.6852 0 17.2968 0ZM16.5937 11.2501H1.40602V1.40627H16.5937V11.2501Z" fill="#868889"/>
<path d="M5.30836 4.834H12.6913C13.0796 4.834 13.3944 4.51921 13.3944 4.13087C13.3944 3.74253 13.0796 3.42773 12.6913 3.42773H5.30836C4.92002 3.42773 4.60522 3.74253 4.60522 4.13087C4.60522 4.51921 4.92002 4.834 5.30836 4.834Z" fill="#868889"/>
</svg>
