<svg width="18" height="18" viewBox="0 0 18 18" fill="none" xmlns="http://www.w3.org/2000/svg">
<path d="M17.2276 4.54447e-08C17.1285 -3.73396e-05 17.0307 0.0229918 16.942 0.0672931L12.107 2.48547L6.63967 0.0551803C6.63074 0.0513671 6.62053 0.0506941 6.61096 0.0468809C6.58636 0.0376841 6.5612 0.0300202 6.53567 0.0239265C6.51028 0.017085 6.48449 0.0117389 6.45847 0.00796305C6.40665 0.00370116 6.35458 0.00370116 6.3028 0.00796305C6.27678 0.0117389 6.25098 0.017085 6.2256 0.0239265C6.20006 0.0300202 6.1749 0.0376841 6.1503 0.0468809C6.14073 0.0506941 6.13053 0.0513297 6.12159 0.0551803L0.379253 2.60734C0.148737 2.7097 0.000206763 2.93828 0.000244148 3.19047V17.2273C0.000356303 17.4432 0.109558 17.6443 0.290539 17.762C0.471557 17.8798 0.699867 17.8981 0.897298 17.8105L6.3806 15.3732L11.8639 17.8105C11.8735 17.8143 11.8837 17.8105 11.8932 17.8162C12.0477 17.8853 12.225 17.8814 12.3762 17.8054C12.3864 17.801 12.3979 17.8054 12.4081 17.7984L17.5124 15.2462C17.7287 15.1381 17.8653 14.917 17.8652 14.6752V0.638349C17.8655 0.285958 17.5799 0.000149586 17.2276 4.54447e-08ZM5.74258 14.2604L1.27631 16.2454V3.60522L5.74258 1.62027V14.2604ZM11.4849 16.2454L7.01865 14.2604V1.62027L11.4849 3.60519V16.2454ZM16.5892 14.2809L12.761 16.195V3.58477L16.5892 1.67066V14.2809Z" fill="#868889"/>
</svg>
