<svg width="18" height="18" viewBox="0 0 18 18" fill="none" xmlns="http://www.w3.org/2000/svg">
<path d="M9 0C4.03734 0 0 4.03734 0 9C0 13.9627 4.03734 18 9 18C13.9627 18 18 13.9627 18 9C18 4.03734 13.9627 0 9 0ZM8.47266 4.4176C7.67038 4.38313 6.87621 4.27039 6.11787 4.08705C6.239 3.80003 6.37042 3.52441 6.51215 3.26321C7.0936 2.19177 7.80743 1.4399 8.47266 1.16757V4.4176ZM8.47266 5.47311V8.47266H5.17882C5.22523 7.30193 5.42477 6.13971 5.75478 5.08255C6.62929 5.30283 7.54733 5.43617 8.47266 5.47311ZM8.47266 9.52734V12.5269C7.54733 12.5638 6.62929 12.6972 5.75478 12.9174C5.42477 11.8603 5.22523 10.6981 5.17882 9.52734H8.47266ZM8.47266 13.5824V16.8324C7.80743 16.5601 7.0936 15.8082 6.51215 14.7368C6.37042 14.4756 6.239 14.2 6.11787 13.9129C6.87621 13.7296 7.67024 13.6169 8.47266 13.5824ZM9.52734 13.5824C10.3296 13.6169 11.1238 13.7296 11.8821 13.9129C11.761 14.2 11.6296 14.4756 11.4879 14.7368C10.9064 15.8082 10.1926 16.5601 9.52734 16.8324V13.5824ZM9.52734 12.5269V9.52734H12.8212C12.7748 10.6981 12.5752 11.8603 12.2452 12.9174C11.3707 12.6972 10.4527 12.5638 9.52734 12.5269ZM9.52734 8.47266V5.47311C10.4527 5.43617 11.3707 5.30283 12.2452 5.08255C12.5752 6.13971 12.7748 7.30193 12.8212 8.47266H9.52734ZM9.52734 4.4176V1.16757C10.1926 1.4399 10.9064 2.19177 11.4879 3.26321C11.6296 3.52441 11.761 3.80003 11.8821 4.08705C11.1238 4.27039 10.3296 4.38313 9.52734 4.4176ZM12.4148 2.76018C12.1507 2.27348 11.8639 1.84447 11.5615 1.47849C12.6159 1.83856 13.571 2.41466 14.3742 3.15349C13.9161 3.3989 13.4224 3.61203 12.903 3.79015C12.7557 3.43227 12.5928 3.08798 12.4148 2.76018ZM5.58517 2.76018C5.4072 3.08798 5.24432 3.43227 5.09697 3.79015C4.57759 3.61203 4.08389 3.39876 3.62576 3.15349C4.429 2.41466 5.38412 1.83856 6.43854 1.47849C6.13614 1.84447 5.8494 2.27335 5.58517 2.76018ZM4.74019 4.78139C4.38025 5.93289 4.16862 7.18822 4.12303 8.47266H1.07268C1.18556 6.75865 1.84378 5.19118 2.87595 3.94341C3.44875 4.2719 4.07607 4.55287 4.74019 4.78139ZM4.12303 9.52734C4.16862 10.8119 4.38025 12.0671 4.74019 13.2186C4.07607 13.4471 3.44875 13.7281 2.87595 14.0566C1.84378 12.8088 1.18556 11.2413 1.07268 9.52734H4.12303ZM5.09697 14.2099C5.24432 14.5677 5.4072 14.912 5.58517 15.2398C5.8494 15.7265 6.13614 16.1555 6.43854 16.5215C5.38412 16.1614 4.429 15.5853 3.6259 14.8465C4.08376 14.6012 4.57759 14.388 5.09697 14.2099ZM12.4148 15.2398C12.5928 14.912 12.7557 14.5677 12.903 14.2099C13.4224 14.388 13.9161 14.6012 14.3742 14.8465C13.571 15.5853 12.6159 16.1614 11.5615 16.5215C11.8639 16.1555 12.1506 15.7267 12.4148 15.2398ZM13.2598 13.2186C13.6198 12.0671 13.8314 10.8118 13.877 9.52734H16.9273C16.8144 11.2413 16.1562 12.8088 15.1241 14.0566C14.5513 13.7281 13.9239 13.4471 13.2598 13.2186ZM13.877 8.47266C13.8314 7.18808 13.6198 5.93289 13.2598 4.78139C13.9239 4.55287 14.5513 4.2719 15.1241 3.94341C16.1562 5.19118 16.8144 6.75865 16.9273 8.47266H13.877Z" fill="#868889"/>
</svg>
